<svg xmlns="http://www.w3.org/2000/svg" viewBox="0 0 100 100" width="200" height="200">
  <defs>
    <linearGradient id="wsh-logo-grad" x1="0%" y1="0%" x2="0%" y2="100%">
      <stop offset="0%" stop-color="#0ea5e9"/>
      <stop offset="50%" stop-color="#0284c7"/>
      <stop offset="100%" stop-color="#0f172a"/>
    </linearGradient>
    <radialGradient id="wsh-inner-glow" cx="50%" cy="45%" r="50%">
      <stop offset="0%" stop-color="#38bdf8" stop-opacity="0.08"/>
      <stop offset="100%" stop-color="#0f172a" stop-opacity="0"/>
    </radialGradient>
  </defs>

  <!-- Hexagon Frame -->
  <polygon points="50.00,4.00 89.84,27.00 89.84,73.00 50.00,96.00 10.16,73.00 10.16,27.00" fill="url(#wsh-inner-glow)" stroke="url(#wsh-logo-grad)" stroke-width="2.5" stroke-linejoin="round"/>

  <!-- Radial lines -->
  <line x1="50" y1="50" x2="50.00" y2="9.52" stroke="url(#wsh-logo-grad)" stroke-width="0.7" opacity="0.55"/>
  <line x1="50" y1="50" x2="78.62" y2="21.38" stroke="url(#wsh-logo-grad)" stroke-width="0.7" opacity="0.55"/>
  <line x1="50" y1="50" x2="90.48" y2="50.00" stroke="url(#wsh-logo-grad)" stroke-width="0.7" opacity="0.55"/>
  <line x1="50" y1="50" x2="78.62" y2="78.62" stroke="url(#wsh-logo-grad)" stroke-width="0.7" opacity="0.55"/>
  <line x1="50" y1="50" x2="50.00" y2="90.48" stroke="url(#wsh-logo-grad)" stroke-width="0.7" opacity="0.55"/>
  <line x1="50" y1="50" x2="21.38" y2="78.62" stroke="url(#wsh-logo-grad)" stroke-width="0.7" opacity="0.55"/>
  <line x1="50" y1="50" x2="9.52" y2="50.00" stroke="url(#wsh-logo-grad)" stroke-width="0.7" opacity="0.55"/>
  <line x1="50" y1="50" x2="21.38" y2="21.38" stroke="url(#wsh-logo-grad)" stroke-width="0.7" opacity="0.55"/>
  <path d="M50.00,39.88 Q53.87,42.45 57.16,42.84 L57.16,42.84 Q59.35,47.93 60.12,50.00 L60.12,50.00 Q59.35,55.67 57.16,57.16 L57.16,57.16 Q53.87,61.15 50.00,60.12 L50.00,60.12 Q46.13,61.15 42.84,57.16 L42.84,57.16 Q40.65,55.67 39.88,50.00 L39.88,50.00 Q40.65,47.93 42.84,42.84 L42.84,42.84 Q53.87,61.15 50.00,39.88 Z" fill="none" stroke="url(#wsh-logo-grad)" stroke-width="0.7" opacity="0.5"/>
  <path d="M50.00,28.84 Q58.10,32.85 64.96,35.04 L64.96,35.04 Q69.55,44.30 71.16,50.00 L71.16,50.00 Q69.55,60.50 64.96,64.96 L64.96,64.96 Q58.10,71.95 50.00,71.16 L50.00,71.16 Q41.90,71.95 35.04,64.96 L35.04,64.96 Q30.45,60.50 28.84,50.00 L28.84,50.00 Q30.45,44.30 35.04,35.04 L35.04,35.04 Q58.10,71.95 50.00,28.84 Z" fill="none" stroke="url(#wsh-logo-grad)" stroke-width="0.7" opacity="0.5"/>
  <path d="M50.00,17.80 Q62.32,23.25 72.77,27.23 L72.77,27.23 Q79.75,40.68 82.20,50.00 L82.20,50.00 Q79.75,65.32 72.77,72.77 L72.77,72.77 Q62.32,82.75 50.00,82.20 L50.00,82.20 Q37.68,82.75 27.23,72.77 L27.23,72.77 Q20.25,65.32 17.80,50.00 L17.80,50.00 Q20.25,40.68 27.23,27.23 L27.23,27.23 Q62.32,82.75 50.00,17.80 Z" fill="none" stroke="url(#wsh-logo-grad)" stroke-width="0.7" opacity="0.5"/>

  <!-- Center dot -->
  <circle cx="50" cy="50" r="1.8" fill="#0ea5e9" opacity="0.7"/>

  <!-- Pen Nib -->
  <g opacity="0.9">
    <path d="M 42,14 C 42,14 40,18 40,24 L 38,30 L 38,42 C 38,46 42,50 50,54 C 58,50 62,46 62,42 L 62,30 L 60,24 C 60,18 58,14 58,14 Z" fill="url(#wsh-logo-grad)" fill-opacity="0.06" stroke="url(#wsh-logo-grad)" stroke-width="1.2" stroke-linejoin="round"/>
    <line x1="39" y1="36" x2="61" y2="36" stroke="url(#wsh-logo-grad)" stroke-width="0.8" opacity="0.6"/>
    <line x1="50" y1="36" x2="50" y2="52" stroke="url(#wsh-logo-grad)" stroke-width="0.6" opacity="0.5"/>
    <circle cx="50" cy="24" r="2.5" fill="none" stroke="url(#wsh-logo-grad)" stroke-width="0.8" opacity="0.6"/>
  </g>
</svg>